<?xml version="1.0" encoding="utf-8"?>
<!-- Generated by Mocodo 4.2.12 -->
<svg width="1514" height="807" viewBox="0 0 1514 807" xmlns="http://www.w3.org/2000/svg">
<rect x="0" y="0" width="1514" height="807" fill="#f7f7f7" stroke="none" stroke-width="0"/>

<!-- Inheritance CONSTRUCTION_PARENT_#1 -->
<g>
	<line x1="1007" y1="471" x2="1183" y2="471" stroke="#de77ae" stroke-width="2"/>
	<polygon points="1062 471 1074 465 1070 471 1074 477" fill="#de77ae" stroke-width="0"/>
	<line x1="1183" y1="580" x2="1183" y2="471" stroke="#de77ae" stroke-width="2"/>
	<line x1="1328" y1="471" x2="1183" y2="471" stroke="#de77ae" stroke-width="2"/>
	<g>
		<polygon points="1183 445.6 1161 483.7 1205 483.7" stroke="#de77ae" stroke-width="2" fill="#f1b6da"/>
		<text x="1175" y="476" fill="#000000" font-family="Verdana" font-size="12">XT</text>
	</g>
</g>

<!-- Association A_DES_PARAMETRES -->
<g>
	<line x1="324" y1="43" x2="173" y2="43" stroke="#de77ae" stroke-width="2"/>
	<line x1="173" y1="127" x2="173" y2="43" stroke="#de77ae" stroke-width="2"/>
	<g>
		<path d="M232 18 a14 14 90 0 1 14 14 V43 h-146 V32 a14 14 90 0 1 14 -14" fill="#f1b6da" stroke="#f1b6da" stroke-width="0"/>
		<path d="M246 43 v11 a14 14 90 0 1 -14 14 H114 a14 14 90 0 1 -14 -14 V43 H146" fill="#fde0ef" stroke="#fde0ef" stroke-width="0"/>
		<rect x="100" y="18" width="146" height="50" fill="none" rx="14" stroke="#de77ae" stroke-width="2"/>
		<line x1="100" y1="43" x2="246" y2="43" stroke="#de77ae" stroke-width="1"/>
		<text x="108" y="35.75" fill="#000000" font-family="Verdana" font-size="12">A_DES_PARAMÈTRES</text>
	</g>
	<text x="251" y="60" fill="#4d9221" font-family="Verdana" font-size="12">0,N</text>
	<text x="178" y="94" fill="#4d9221" font-family="Verdana" font-size="12">1,N</text>
</g>

<!-- Association POSSEDER -->
<g>
	<line x1="452" y1="127" x2="324" y2="127" stroke="#de77ae" stroke-width="2"/>
	<line x1="173" y1="127" x2="324" y2="127" stroke="#de77ae" stroke-width="2"/>
	<g>
		<path d="M356 102 a14 14 90 0 1 14 14 V127 h-92 V116 a14 14 90 0 1 14 -14" fill="#f1b6da" stroke="#f1b6da" stroke-width="0"/>
		<path d="M370 127 v11 a14 14 90 0 1 -14 14 H292 a14 14 90 0 1 -14 -14 V127 H92" fill="#fde0ef" stroke="#fde0ef" stroke-width="0"/>
		<rect x="278" y="102" width="92" height="50" fill="none" rx="14" stroke="#de77ae" stroke-width="2"/>
		<line x1="278" y1="127" x2="370" y2="127" stroke="#de77ae" stroke-width="1"/>
		<text x="291" y="119.75" fill="#000000" font-family="Verdana" font-size="12">POSSÉDER</text>
		<text x="285" y="144.8" fill="#000000" font-family="Verdana" font-size="12">durée_partie</text>
	</g>
	<text x="386" y="144" fill="#4d9221" font-family="Verdana" font-size="12">1,1</text>
	<text x="236" y="144" fill="#4d9221" font-family="Verdana" font-size="12">1,N</text>
</g>

<!-- Association SE_DIVISER -->
<g>
	<line x1="452" y1="127" x2="575" y2="127" stroke="#de77ae" stroke-width="2"/>
	<line x1="575" y1="219" x2="575" y2="127" stroke="#de77ae" stroke-width="2"/>
	<g>
		<path d="M606 102 a14 14 90 0 1 14 14 V127 h-90 V116 a14 14 90 0 1 14 -14" fill="#f1b6da" stroke="#f1b6da" stroke-width="0"/>
		<path d="M620 127 v11 a14 14 90 0 1 -14 14 H544 a14 14 90 0 1 -14 -14 V127 H90" fill="#fde0ef" stroke="#fde0ef" stroke-width="0"/>
		<rect x="530" y="102" width="90" height="50" fill="none" rx="14" stroke="#de77ae" stroke-width="2"/>
		<line x1="530" y1="127" x2="620" y2="127" stroke="#de77ae" stroke-width="1"/>
		<text x="537" y="119.75" fill="#000000" font-family="Verdana" font-size="12">SE_DIVISER</text>
	</g>
	<text x="497" y="144" fill="#4d9221" font-family="Verdana" font-size="12">1,N</text>
	<text x="580" y="186" fill="#4d9221" font-family="Verdana" font-size="12">1,1</text>
	<line x1="580" y1="188" x2="601" y2="188" stroke="#4d9221" stroke-width="1"/>
</g>

<!-- Association EVOLUER -->
<g>
	<line x1="57" y1="219" x2="173" y2="219" stroke="#de77ae" stroke-width="2"/>
	<line x1="173" y1="127" x2="173" y2="219" stroke="#de77ae" stroke-width="2"/>
	<g>
		<path d="M195 194 a14 14 90 0 1 14 14 V219 h-72 V208 a14 14 90 0 1 14 -14" fill="#f1b6da" stroke="#f1b6da" stroke-width="0"/>
		<path d="M209 219 v11 a14 14 90 0 1 -14 14 H151 a14 14 90 0 1 -14 -14 V219 H72" fill="#fde0ef" stroke="#fde0ef" stroke-width="0"/>
		<rect x="137" y="194" width="72" height="50" fill="none" rx="14" stroke="#de77ae" stroke-width="2"/>
		<line x1="137" y1="219" x2="209" y2="219" stroke="#de77ae" stroke-width="1"/>
		<text x="144" y="211.75" fill="#000000" font-family="Verdana" font-size="12">ÉVOLUER</text>
	</g>
	<text x="110" y="236" fill="#4d9221" font-family="Verdana" font-size="12">1,1</text>
	<text x="178" y="169" fill="#4d9221" font-family="Verdana" font-size="12">1,N</text>
</g>

<!-- Association DEROULER -->
<g>
	<line x1="452" y1="345" x2="452" y2="219" stroke="#de77ae" stroke-width="2"/>
	<line x1="452" y1="127" x2="452" y2="219" stroke="#de77ae" stroke-width="2"/>
	<line x1="324" y1="219" x2="452" y2="219" stroke="#de77ae" stroke-width="2"/>
	<g>
		<path d="M479 194 a14 14 90 0 1 14 14 V219 h-82 V208 a14 14 90 0 1 14 -14" fill="#f1b6da" stroke="#f1b6da" stroke-width="0"/>
		<path d="M493 219 v11 a14 14 90 0 1 -14 14 H425 a14 14 90 0 1 -14 -14 V219 H82" fill="#fde0ef" stroke="#fde0ef" stroke-width="0"/>
		<rect x="411" y="194" width="82" height="50" fill="none" rx="14" stroke="#de77ae" stroke-width="2"/>
		<line x1="411" y1="219" x2="493" y2="219" stroke="#de77ae" stroke-width="1"/>
		<text x="419" y="211.75" fill="#000000" font-family="Verdana" font-size="12">DÉROULER</text>
		<text x="418" y="236.8" fill="#000000" font-family="Verdana" font-size="12">score</text>
	</g>
	<text x="457" y="295" fill="#4d9221" font-family="Verdana" font-size="12">0,N</text>
	<text x="457" y="186" fill="#4d9221" font-family="Verdana" font-size="12">1,N</text>
	<text x="384" y="236" fill="#4d9221" font-family="Verdana" font-size="12">0,N</text>
</g>

<!-- Association ACTION -->
<g>
	<line x1="575" y1="219" x2="698" y2="219" stroke="#de77ae" stroke-width="2"/>
	<path d="M834 345 C846.58 302.01 801.24 260.01 698 219" fill="none" stroke="#de77ae" stroke-width="2"/>
	<g>
		<path d="M725 194 a14 14 90 0 1 14 14 V219 h-82 V208 a14 14 90 0 1 14 -14" fill="#f1b6da" stroke="#f1b6da" stroke-width="0"/>
		<path d="M739 219 v11 a14 14 90 0 1 -14 14 H671 a14 14 90 0 1 -14 -14 V219 H82" fill="#fde0ef" stroke="#fde0ef" stroke-width="0"/>
		<rect x="657" y="194" width="82" height="50" fill="none" rx="14" stroke="#de77ae" stroke-width="2"/>
		<line x1="657" y1="219" x2="739" y2="219" stroke="#de77ae" stroke-width="1"/>
		<text x="674" y="211.75" fill="#000000" font-family="Verdana" font-size="12">ACTION</text>
		<text x="664" y="236.8" fill="#000000" font-family="Verdana" font-size="12">description</text>
	</g>
	<text x="609" y="236" fill="#4d9221" font-family="Verdana" font-size="12">0,2</text>
	<text x="778" y="287.31" fill="#4d9221" font-family="Verdana" font-size="12">0,N</text>
</g>

<!-- Association POSSEDER_MOT -->
<g>
	<line x1="834" y1="345" x2="834" y2="219" stroke="#de77ae" stroke-width="2"/>
	<line x1="834" y1="127" x2="834" y2="219" stroke="#de77ae" stroke-width="2"/>
	<g>
		<path d="M878 194 a14 14 90 0 1 14 14 V219 h-116 V208 a14 14 90 0 1 14 -14" fill="#f1b6da" stroke="#f1b6da" stroke-width="0"/>
		<path d="M892 219 v11 a14 14 90 0 1 -14 14 H790 a14 14 90 0 1 -14 -14 V219 H116" fill="#fde0ef" stroke="#fde0ef" stroke-width="0"/>
		<rect x="776" y="194" width="116" height="50" fill="none" rx="14" stroke="#de77ae" stroke-width="2"/>
		<line x1="776" y1="219" x2="892" y2="219" stroke="#de77ae" stroke-width="1"/>
		<text x="784" y="211.75" fill="#000000" font-family="Verdana" font-size="12">POSSÉDER_MOT</text>
	</g>
	<text x="839" y="261" fill="#4d9221" font-family="Verdana" font-size="12">0,N</text>
	<text x="839" y="169" fill="#4d9221" font-family="Verdana" font-size="12">1,1</text>
	<line x1="839" y1="171" x2="860" y2="171" stroke="#4d9221" stroke-width="1"/>
</g>

<!-- Association ETRE_FABRIQUE -->
<g>
	<line x1="834" y1="345" x2="1007" y2="219" stroke="#de77ae" stroke-width="2"/>
	<line x1="1183" y1="219" x2="1007" y2="219" stroke="#de77ae" stroke-width="2"/>
	<line x1="1007" y1="127" x2="1007" y2="219" stroke="#de77ae" stroke-width="2"/>
	<g>
		<path d="M1051 194 a14 14 90 0 1 14 14 V219 h-116 V208 a14 14 90 0 1 14 -14" fill="#f1b6da" stroke="#f1b6da" stroke-width="0"/>
		<path d="M1065 219 v11 a14 14 90 0 1 -14 14 H963 a14 14 90 0 1 -14 -14 V219 H116" fill="#fde0ef" stroke="#fde0ef" stroke-width="0"/>
		<rect x="949" y="194" width="116" height="50" fill="none" rx="14" stroke="#de77ae" stroke-width="2"/>
		<line x1="949" y1="219" x2="1065" y2="219" stroke="#de77ae" stroke-width="1"/>
		<text x="956" y="211.75" fill="#000000" font-family="Verdana" font-size="12">ÊTRE_FABRIQUÉ</text>
		<text x="956" y="236.8" fill="#000000" font-family="Verdana" font-size="12">quantité</text>
	</g>
	<text x="868" y="335.36" fill="#4d9221" font-family="Verdana" font-size="12">1,N</text>
	<text x="1131" y="236" fill="#4d9221" font-family="Verdana" font-size="12">0,N</text>
	<text x="1012" y="169" fill="#4d9221" font-family="Verdana" font-size="12">0,N</text>
</g>

<!-- Association ETRE_LIE -->
<g>
	<line x1="452" y1="345" x2="575" y2="345" stroke="#de77ae" stroke-width="2"/>
	<line x1="575" y1="219" x2="575" y2="345" stroke="#de77ae" stroke-width="2"/>
	<g>
		<path d="M598 320 a14 14 90 0 1 14 14 V345 h-74 V334 a14 14 90 0 1 14 -14" fill="#f1b6da" stroke="#f1b6da" stroke-width="0"/>
		<path d="M612 345 v11 a14 14 90 0 1 -14 14 H552 a14 14 90 0 1 -14 -14 V345 H74" fill="#fde0ef" stroke="#fde0ef" stroke-width="0"/>
		<rect x="538" y="320" width="74" height="50" fill="none" rx="14" stroke="#de77ae" stroke-width="2"/>
		<line x1="538" y1="345" x2="612" y2="345" stroke="#de77ae" stroke-width="1"/>
		<text x="546" y="337.75" fill="#000000" font-family="Verdana" font-size="12">ÊTRE_LIÉ</text>
	</g>
	<text x="511" y="362" fill="#4d9221" font-family="Verdana" font-size="12">0,N</text>
	<text x="580" y="261" fill="#4d9221" font-family="Verdana" font-size="12">1,N</text>
</g>

<!-- Association SUBSTITUTION -->
<g>
	<path d="M834 345 C819.33 378.33 774 378.33 698 345" fill="none" stroke="#de77ae" stroke-width="2"/>
	<polygon points="751.99 364.49 765.12 361.72 759.73 366.51 762.08 373.33" fill="#de77ae" stroke-width="0"/>
	<path d="M834 345 C819.33 311.67 774 311.67 698 345" fill="none" stroke="#de77ae" stroke-width="2"/>
	<polygon points="805.0 321.66 791.96 324.82 797.2 319.87 794.64 313.13" fill="#de77ae" stroke-width="0"/>
	<line x1="698" y1="471" x2="698" y2="345" stroke="#de77ae" stroke-width="2"/>
	<g>
		<path d="M738 320 a14 14 90 0 1 14 14 V345 h-108 V334 a14 14 90 0 1 14 -14" fill="#f1b6da" stroke="#f1b6da" stroke-width="0"/>
		<path d="M752 345 v11 a14 14 90 0 1 -14 14 H658 a14 14 90 0 1 -14 -14 V345 H108" fill="#fde0ef" stroke="#fde0ef" stroke-width="0"/>
		<rect x="644" y="320" width="108" height="50" fill="none" rx="14" stroke="#de77ae" stroke-width="2"/>
		<line x1="644" y1="345" x2="752" y2="345" stroke="#de77ae" stroke-width="1"/>
		<text x="651" y="337.75" fill="#000000" font-family="Verdana" font-size="12">SUBSTITUTION</text>
	</g>
	<text x="778" y="360" fill="#4d9221" font-family="Verdana" font-size="12">0,N</text>
	<text x="778" y="339" fill="#4d9221" font-family="Verdana" font-size="12">1,N</text>
	<text x="703" y="421" fill="#4d9221" font-family="Verdana" font-size="12">0,N</text>
</g>

<!-- Association ETRE_ACCOMPAGNE -->
<g>
	<line x1="834" y1="345" x2="1007" y2="345" stroke="#de77ae" stroke-width="2"/>
	<line x1="1007" y1="471" x2="1007" y2="345" stroke="#de77ae" stroke-width="2"/>
	<line x1="1183" y1="345" x2="1007" y2="345" stroke="#de77ae" stroke-width="2"/>
	<g>
		<path d="M1063 320 a14 14 90 0 1 14 14 V345 h-140 V334 a14 14 90 0 1 14 -14" fill="#f1b6da" stroke="#f1b6da" stroke-width="0"/>
		<path d="M1077 345 v11 a14 14 90 0 1 -14 14 H951 a14 14 90 0 1 -14 -14 V345 H140" fill="#fde0ef" stroke="#fde0ef" stroke-width="0"/>
		<rect x="937" y="320" width="140" height="50" fill="none" rx="14" stroke="#de77ae" stroke-width="2"/>
		<line x1="937" y1="345" x2="1077" y2="345" stroke="#de77ae" stroke-width="1"/>
		<text x="945" y="337.75" fill="#000000" font-family="Verdana" font-size="12">ÊTRE_ACCOMPAGNÉ</text>
	</g>
	<text x="868" y="362" fill="#4d9221" font-family="Verdana" font-size="12">0,N</text>
	<text x="1012" y="404" fill="#4d9221" font-family="Verdana" font-size="12">0,N</text>
	<text x="1117" y="362" fill="#4d9221" font-family="Verdana" font-size="12">1,N</text>
</g>

<!-- Association PROPOSER_CA -->
<g>
	<line x1="1328" y1="471" x2="1328" y2="345" stroke="#de77ae" stroke-width="2"/>
	<line x1="1328" y1="219" x2="1328" y2="345" stroke="#de77ae" stroke-width="2"/>
	<g>
		<path d="M1367 320 a14 14 90 0 1 14 14 V345 h-106 V334 a14 14 90 0 1 14 -14" fill="#f1b6da" stroke="#f1b6da" stroke-width="0"/>
		<path d="M1381 345 v11 a14 14 90 0 1 -14 14 H1289 a14 14 90 0 1 -14 -14 V345 H106" fill="#fde0ef" stroke="#fde0ef" stroke-width="0"/>
		<rect x="1275" y="320" width="106" height="50" fill="none" rx="14" stroke="#de77ae" stroke-width="2"/>
		<line x1="1275" y1="345" x2="1381" y2="345" stroke="#de77ae" stroke-width="1"/>
		<text x="1283" y="337.75" fill="#000000" font-family="Verdana" font-size="12">PROPOSER_CA</text>
	</g>
	<text x="1333" y="429" fill="#4d9221" font-family="Verdana" font-size="12">1,1</text>
	<text x="1333" y="261" fill="#4d9221" font-family="Verdana" font-size="12">0,N</text>
</g>

<!-- Association ETRE_ASSEMBLE -->
<g>
	<line x1="834" y1="345" x2="834" y2="471" stroke="#de77ae" stroke-width="2"/>
	<line x1="1007" y1="471" x2="834" y2="471" stroke="#de77ae" stroke-width="2"/>
	<g>
		<path d="M879 446 a14 14 90 0 1 14 14 V471 h-118 V460 a14 14 90 0 1 14 -14" fill="#f1b6da" stroke="#f1b6da" stroke-width="0"/>
		<path d="M893 471 v11 a14 14 90 0 1 -14 14 H789 a14 14 90 0 1 -14 -14 V471 H118" fill="#fde0ef" stroke="#fde0ef" stroke-width="0"/>
		<rect x="775" y="446" width="118" height="50" fill="none" rx="14" stroke="#de77ae" stroke-width="2"/>
		<line x1="775" y1="471" x2="893" y2="471" stroke="#de77ae" stroke-width="1"/>
		<text x="782" y="463.75" fill="#000000" font-family="Verdana" font-size="12">ÊTRE_ASSEMBLÉ</text>
	</g>
	<text x="839" y="438" fill="#4d9221" font-family="Verdana" font-size="12">0,N</text>
	<text x="925" y="488" fill="#4d9221" font-family="Verdana" font-size="12">1,N</text>
</g>

<!-- Association REALISATION -->
<g>
	<line x1="1007" y1="471" x2="1007" y2="580" stroke="#de77ae" stroke-width="2"/>
	<line x1="1007" y1="664" x2="1007" y2="580" stroke="#de77ae" stroke-width="2"/>
	<g>
		<path d="M1042 555 a14 14 90 0 1 14 14 V580 h-98 V569 a14 14 90 0 1 14 -14" fill="#f1b6da" stroke="#f1b6da" stroke-width="0"/>
		<path d="M1056 580 v11 a14 14 90 0 1 -14 14 H972 a14 14 90 0 1 -14 -14 V580 H98" fill="#fde0ef" stroke="#fde0ef" stroke-width="0"/>
		<rect x="958" y="555" width="98" height="50" fill="none" rx="14" stroke="#de77ae" stroke-width="2"/>
		<line x1="958" y1="580" x2="1056" y2="580" stroke="#de77ae" stroke-width="1"/>
		<text x="965" y="572.75" fill="#000000" font-family="Verdana" font-size="12">RÉALISATION</text>
	</g>
	<text x="1012" y="547" fill="#4d9221" font-family="Verdana" font-size="12">1,N</text>
	<text x="1012" y="622" fill="#4d9221" font-family="Verdana" font-size="12">1,1</text>
	<line x1="1012" y1="624" x2="1033" y2="624" stroke="#4d9221" stroke-width="1"/>
</g>

<!-- Association PROPOSER_CO -->
<g>
	<line x1="1183" y1="580" x2="1328" y2="580" stroke="#de77ae" stroke-width="2"/>
	<line x1="1459" y1="580" x2="1328" y2="580" stroke="#de77ae" stroke-width="2"/>
	<g>
		<path d="M1367 555 a14 14 90 0 1 14 14 V580 h-106 V569 a14 14 90 0 1 14 -14" fill="#f1b6da" stroke="#f1b6da" stroke-width="0"/>
		<path d="M1381 580 v11 a14 14 90 0 1 -14 14 H1289 a14 14 90 0 1 -14 -14 V580 H106" fill="#fde0ef" stroke="#fde0ef" stroke-width="0"/>
		<rect x="1275" y="555" width="106" height="50" fill="none" rx="14" stroke="#de77ae" stroke-width="2"/>
		<line x1="1275" y1="580" x2="1381" y2="580" stroke="#de77ae" stroke-width="1"/>
		<text x="1282" y="572.75" fill="#000000" font-family="Verdana" font-size="12">PROPOSER_CO</text>
	</g>
	<text x="1248" y="597" fill="#4d9221" font-family="Verdana" font-size="12">1,1</text>
	<text x="1386" y="597" fill="#4d9221" font-family="Verdana" font-size="12">0,N</text>
</g>

<!-- Association VENDUE -->
<g>
	<line x1="1183" y1="580" x2="1183" y2="664" stroke="#de77ae" stroke-width="2"/>
	<line x1="1183" y1="756" x2="1183" y2="664" stroke="#de77ae" stroke-width="2"/>
	<g>
		<path d="M1202 639 a14 14 90 0 1 14 14 V664 h-66 V653 a14 14 90 0 1 14 -14" fill="#f1b6da" stroke="#f1b6da" stroke-width="0"/>
		<path d="M1216 664 v11 a14 14 90 0 1 -14 14 H1164 a14 14 90 0 1 -14 -14 V664 H66" fill="#fde0ef" stroke="#fde0ef" stroke-width="0"/>
		<rect x="1150" y="639" width="66" height="50" fill="none" rx="14" stroke="#de77ae" stroke-width="2"/>
		<line x1="1150" y1="664" x2="1216" y2="664" stroke="#de77ae" stroke-width="1"/>
		<text x="1158" y="656.75" fill="#000000" font-family="Verdana" font-size="12">VENDUE</text>
	</g>
	<text x="1188" y="622" fill="#4d9221" font-family="Verdana" font-size="12">0,1</text>
	<text x="1188" y="706" fill="#4d9221" font-family="Verdana" font-size="12">0,N</text>
</g>

<!-- Association POSSEDER_INSTRUCTIONS -->
<g>
	<line x1="1007" y1="664" x2="1007" y2="756" stroke="#de77ae" stroke-width="2"/>
	<line x1="834" y1="756" x2="1007" y2="756" stroke="#de77ae" stroke-width="2"/>
	<g>
		<path d="M1085 731 a14 14 90 0 1 14 14 V756 h-184 V745 a14 14 90 0 1 14 -14" fill="#f1b6da" stroke="#f1b6da" stroke-width="0"/>
		<path d="M1099 756 v11 a14 14 90 0 1 -14 14 H929 a14 14 90 0 1 -14 -14 V756 H184" fill="#fde0ef" stroke="#fde0ef" stroke-width="0"/>
		<rect x="915" y="731" width="184" height="50" fill="none" rx="14" stroke="#de77ae" stroke-width="2"/>
		<line x1="915" y1="756" x2="1099" y2="756" stroke="#de77ae" stroke-width="1"/>
		<text x="923" y="748.75" fill="#000000" font-family="Verdana" font-size="12">POSSÉDER_INSTRUCTIONS</text>
	</g>
	<text x="1012" y="715" fill="#4d9221" font-family="Verdana" font-size="12">0,N</text>
	<text x="888" y="773" fill="#4d9221" font-family="Verdana" font-size="12">1,1</text>
	<line x1="888" y1="775" x2="909" y2="775" stroke="#4d9221" stroke-width="1"/>
</g>

<!-- Entity PARAMETRES -->
<g>
	<g>
		<rect x="278" y="9" width="92" height="25" fill="#b8e186" stroke="none" stroke-width="0" opacity="1"/>
		<rect x="278" y="34" width="92" height="43" fill="#e6f5d0" stroke="none" stroke-width="0" opacity="1"/>
		<rect x="278" y="9" width="92" height="68" fill="none" stroke="#7fbc41" stroke-width="2" opacity="1"/>
		<line x1="278" y1="34" x2="370" y2="34" stroke="#7fbc41" stroke-width="1"/>
	</g>
	<text x="283" y="26.75" fill="#000000" font-family="Verdana" font-size="12">PARAMÈTRES</text>
	<text x="283" y="51.8" fill="#000000" font-family="Verdana" font-size="12">valeur_C</text>
	<line x1="283" y1="54" x2="338" y2="54" stroke="#000000" stroke-width="1"/>
	<text x="283" y="68.8" fill="#000000" font-family="Verdana" font-size="12">propriété_V</text>
	<line x1="283" y1="71" x2="355" y2="71" stroke="#000000" stroke-width="1"/>
</g>

<!-- Entity CONFIGURATION -->
<g>
	<g>
		<rect x="115" y="102" width="116" height="25" fill="#b8e186" stroke="none" stroke-width="0" opacity="1"/>
		<rect x="115" y="127" width="116" height="25" fill="#e6f5d0" stroke="none" stroke-width="0" opacity="1"/>
		<rect x="115" y="102" width="116" height="50" fill="none" stroke="#7fbc41" stroke-width="2" opacity="1"/>
		<line x1="115" y1="127" x2="231" y2="127" stroke="#7fbc41" stroke-width="1"/>
	</g>
	<text x="121" y="119.75" fill="#000000" font-family="Verdana" font-size="12">CONFIGURATION</text>
	<text x="120" y="144.8" fill="#000000" font-family="Verdana" font-size="12">id_Configuration</text>
	<line x1="120" y1="147" x2="220" y2="147" stroke="#000000" stroke-width="1"/>
</g>

<!-- Entity PARTIE -->
<g>
	<g>
		<rect x="412" y="85" width="80" height="25" fill="#b8e186" stroke="none" stroke-width="0" opacity="1"/>
		<rect x="412" y="110" width="80" height="59" fill="#e6f5d0" stroke="none" stroke-width="0" opacity="1"/>
		<rect x="412" y="85" width="80" height="84" fill="none" stroke="#7fbc41" stroke-width="2" opacity="1"/>
		<line x1="412" y1="110" x2="492" y2="110" stroke="#7fbc41" stroke-width="1"/>
	</g>
	<text x="430" y="102.75" fill="#000000" font-family="Verdana" font-size="12">PARTIE</text>
	<text x="417" y="127.8" fill="#000000" font-family="Verdana" font-size="12">id_partie</text>
	<line x1="417" y1="130" x2="471" y2="130" stroke="#000000" stroke-width="1"/>
	<text x="417" y="144.8" fill="#000000" font-family="Verdana" font-size="12">date_début</text>
	<text x="417" y="161.8" fill="#000000" font-family="Verdana" font-size="12">date_fin</text>
</g>

<!-- Entity MOT_CLE -->
<g>
	<g>
		<rect x="800" y="102" width="68" height="25" fill="#b8e186" stroke="none" stroke-width="0" opacity="1"/>
		<rect x="800" y="127" width="68" height="25" fill="#e6f5d0" stroke="none" stroke-width="0" opacity="1"/>
		<rect x="800" y="102" width="68" height="50" fill="none" stroke="#7fbc41" stroke-width="2" opacity="1"/>
		<line x1="800" y1="127" x2="868" y2="127" stroke="#7fbc41" stroke-width="1"/>
	</g>
	<text x="805" y="119.75" fill="#000000" font-family="Verdana" font-size="12">MOT_CLÉ</text>
	<text x="805" y="144.8" fill="#000000" font-family="Verdana" font-size="12">mot</text>
	<line x1="805" y1="147" x2="830" y2="147" stroke="#000000" stroke-width="1" stroke-dasharray="4"/>
</g>

<!-- Entity DATE -->
<g>
	<g>
		<rect x="981" y="102" width="52" height="25" fill="#b8e186" stroke="none" stroke-width="0" opacity="1"/>
		<rect x="981" y="127" width="52" height="25" fill="#e6f5d0" stroke="none" stroke-width="0" opacity="1"/>
		<rect x="981" y="102" width="52" height="50" fill="none" stroke="#7fbc41" stroke-width="2" opacity="1"/>
		<line x1="981" y1="127" x2="1033" y2="127" stroke="#7fbc41" stroke-width="1"/>
	</g>
	<text x="991" y="119.75" fill="#000000" font-family="Verdana" font-size="12">DATE</text>
	<text x="986" y="144.8" fill="#000000" font-family="Verdana" font-size="12">date_F</text>
	<line x1="986" y1="147" x2="1028" y2="147" stroke="#000000" stroke-width="1"/>
</g>

<!-- Entity HISTORIQUE -->
<g>
	<g>
		<rect x="9" y="185" width="96" height="25" fill="#b8e186" stroke="none" stroke-width="0" opacity="1"/>
		<rect x="9" y="210" width="96" height="43" fill="#e6f5d0" stroke="none" stroke-width="0" opacity="1"/>
		<rect x="9" y="185" width="96" height="68" fill="none" stroke="#7fbc41" stroke-width="2" opacity="1"/>
		<line x1="9" y1="210" x2="105" y2="210" stroke="#7fbc41" stroke-width="1"/>
	</g>
	<text x="18" y="202.75" fill="#000000" font-family="Verdana" font-size="12">HISTORIQUE</text>
	<text x="14" y="227.8" fill="#000000" font-family="Verdana" font-size="12">date_début_C</text>
	<line x1="14" y1="230" x2="100" y2="230" stroke="#000000" stroke-width="1"/>
	<text x="14" y="244.8" fill="#000000" font-family="Verdana" font-size="12">date_fin_C</text>
	<line x1="14" y1="247" x2="80" y2="247" stroke="#000000" stroke-width="1"/>
</g>

<!-- Entity GAGNANT -->
<g>
	<g>
		<rect x="269" y="194" width="110" height="25" fill="#b8e186" stroke="none" stroke-width="0" opacity="1"/>
		<rect x="269" y="219" width="110" height="25" fill="#e6f5d0" stroke="none" stroke-width="0" opacity="1"/>
		<rect x="269" y="194" width="110" height="50" fill="none" stroke="#7fbc41" stroke-width="2" opacity="1"/>
		<line x1="269" y1="219" x2="379" y2="219" stroke="#7fbc41" stroke-width="1"/>
	</g>
	<text x="294" y="211.75" fill="#000000" font-family="Verdana" font-size="12">GAGNANT</text>
	<text x="274" y="236.8" fill="#000000" font-family="Verdana" font-size="12">joueur_Gagnant</text>
	<line x1="274" y1="239" x2="373" y2="239" stroke="#000000" stroke-width="1"/>
</g>

<!-- Entity TOUR -->
<g>
	<g>
		<rect x="546" y="194" width="58" height="25" fill="#b8e186" stroke="none" stroke-width="0" opacity="1"/>
		<rect x="546" y="219" width="58" height="25" fill="#e6f5d0" stroke="none" stroke-width="0" opacity="1"/>
		<rect x="546" y="194" width="58" height="50" fill="none" stroke="#7fbc41" stroke-width="2" opacity="1"/>
		<line x1="546" y1="219" x2="604" y2="219" stroke="#7fbc41" stroke-width="1"/>
	</g>
	<text x="558" y="211.75" fill="#000000" font-family="Verdana" font-size="12">TOUR</text>
	<text x="551" y="236.8" fill="#000000" font-family="Verdana" font-size="12">numéro</text>
	<line x1="551" y1="239" x2="598" y2="239" stroke="#000000" stroke-width="1" stroke-dasharray="4"/>
</g>

<!-- Entity USINE -->
<g>
	<g>
		<rect x="1158" y="185" width="50" height="25" fill="#b8e186" stroke="none" stroke-width="0" opacity="1"/>
		<rect x="1158" y="210" width="50" height="43" fill="#e6f5d0" stroke="none" stroke-width="0" opacity="1"/>
		<rect x="1158" y="185" width="50" height="68" fill="none" stroke="#7fbc41" stroke-width="2" opacity="1"/>
		<line x1="1158" y1="210" x2="1208" y2="210" stroke="#7fbc41" stroke-width="1"/>
	</g>
	<text x="1163" y="202.75" fill="#000000" font-family="Verdana" font-size="12">USINE</text>
	<text x="1163" y="227.8" fill="#000000" font-family="Verdana" font-size="12">ville</text>
	<line x1="1163" y1="230" x2="1188" y2="230" stroke="#000000" stroke-width="1"/>
	<text x="1163" y="244.8" fill="#000000" font-family="Verdana" font-size="12">pays</text>
	<line x1="1163" y1="247" x2="1192" y2="247" stroke="#000000" stroke-width="1"/>
</g>

<!-- Entity FAN -->
<g>
	<g>
		<rect x="1305" y="194" width="46" height="25" fill="#b8e186" stroke="none" stroke-width="0" opacity="1"/>
		<rect x="1305" y="219" width="46" height="25" fill="#e6f5d0" stroke="none" stroke-width="0" opacity="1"/>
		<rect x="1305" y="194" width="46" height="50" fill="none" stroke="#7fbc41" stroke-width="2" opacity="1"/>
		<line x1="1305" y1="219" x2="1351" y2="219" stroke="#7fbc41" stroke-width="1"/>
	</g>
	<text x="1316" y="211.75" fill="#000000" font-family="Verdana" font-size="12">FAN</text>
	<text x="1310" y="236.8" fill="#000000" font-family="Verdana" font-size="12">fan_C</text>
	<line x1="1310" y1="239" x2="1346" y2="239" stroke="#000000" stroke-width="1"/>
</g>

<!-- Entity JOUEUR -->
<g>
	<g>
		<rect x="398" y="303" width="108" height="25" fill="#b8e186" stroke="none" stroke-width="0" opacity="1"/>
		<rect x="398" y="328" width="108" height="59" fill="#e6f5d0" stroke="none" stroke-width="0" opacity="1"/>
		<rect x="398" y="303" width="108" height="84" fill="none" stroke="#7fbc41" stroke-width="2" opacity="1"/>
		<line x1="398" y1="328" x2="506" y2="328" stroke="#7fbc41" stroke-width="1"/>
	</g>
	<text x="428" y="320.75" fill="#000000" font-family="Verdana" font-size="12">JOUEUR</text>
	<text x="403" y="345.8" fill="#000000" font-family="Verdana" font-size="12">prénom</text>
	<line x1="403" y1="348" x2="450" y2="348" stroke="#000000" stroke-width="1"/>
	<text x="403" y="362.8" fill="#000000" font-family="Verdana" font-size="12">date_inscription</text>
	<text x="403" y="379.8" fill="#000000" font-family="Verdana" font-size="12">avatar</text>
</g>

<!-- Entity PIECE -->
<g>
	<g>
		<rect x="805" y="269" width="58" height="25" fill="#b8e186" stroke="none" stroke-width="0" opacity="1"/>
		<rect x="805" y="294" width="58" height="127" fill="#e6f5d0" stroke="none" stroke-width="0" opacity="1"/>
		<rect x="805" y="269" width="58" height="152" fill="none" stroke="#7fbc41" stroke-width="2" opacity="1"/>
		<line x1="805" y1="294" x2="863" y2="294" stroke="#7fbc41" stroke-width="1"/>
	</g>
	<text x="818" y="286.75" fill="#000000" font-family="Verdana" font-size="12">piece</text>
	<text x="810" y="311.8" fill="#000000" font-family="Verdana" font-size="12">id_B</text>
	<line x1="810" y1="314" x2="838" y2="314" stroke="#000000" stroke-width="1"/>
	<text x="810" y="328.8" fill="#000000" font-family="Verdana" font-size="12">longeur</text>
	<text x="810" y="345.8" fill="#000000" font-family="Verdana" font-size="12">largeur</text>
	<text x="810" y="362.8" fill="#000000" font-family="Verdana" font-size="12">hauteur</text>
	<text x="810" y="379.8" fill="#000000" font-family="Verdana" font-size="12">couleur</text>
	<text x="810" y="396.8" fill="#000000" font-family="Verdana" font-size="12">forme</text>
	<text x="810" y="413.8" fill="#000000" font-family="Verdana" font-size="12">nom</text>
</g>

<!-- Entity PHOTO -->
<g>
	<g>
		<rect x="1144" y="303" width="78" height="25" fill="#b8e186" stroke="none" stroke-width="0" opacity="1"/>
		<rect x="1144" y="328" width="78" height="59" fill="#e6f5d0" stroke="none" stroke-width="0" opacity="1"/>
		<rect x="1144" y="303" width="78" height="84" fill="none" stroke="#7fbc41" stroke-width="2" opacity="1"/>
		<line x1="1144" y1="328" x2="1222" y2="328" stroke="#7fbc41" stroke-width="1"/>
	</g>
	<text x="1161" y="320.75" fill="#000000" font-family="Verdana" font-size="12">PHOTO</text>
	<text x="1149" y="345.8" fill="#000000" font-family="Verdana" font-size="12">chemin</text>
	<line x1="1149" y1="348" x2="1194" y2="348" stroke="#000000" stroke-width="1"/>
	<text x="1149" y="362.8" fill="#000000" font-family="Verdana" font-size="12">titre</text>
	<text x="1149" y="379.8" fill="#000000" font-family="Verdana" font-size="12">description</text>
</g>

<!-- Entity CRITERE -->
<g>
	<g>
		<rect x="653" y="429" width="90" height="25" fill="#b8e186" stroke="none" stroke-width="0" opacity="1"/>
		<rect x="653" y="454" width="90" height="59" fill="#e6f5d0" stroke="none" stroke-width="0" opacity="1"/>
		<rect x="653" y="429" width="90" height="84" fill="none" stroke="#7fbc41" stroke-width="2" opacity="1"/>
		<line x1="653" y1="454" x2="743" y2="454" stroke="#7fbc41" stroke-width="1"/>
	</g>
	<text x="671" y="446.75" fill="#000000" font-family="Verdana" font-size="12">CRITÈRE</text>
	<text x="658" y="471.8" fill="#000000" font-family="Verdana" font-size="12">id_C</text>
	<line x1="658" y1="474" x2="686" y2="474" stroke="#000000" stroke-width="1"/>
	<text x="658" y="488.8" fill="#000000" font-family="Verdana" font-size="12">nom</text>
	<text x="658" y="505.8" fill="#000000" font-family="Verdana" font-size="12">commentaire</text>
</g>

<!-- Entity CONSTRUCTION -->
<g>
	<g>
		<rect x="952" y="412" width="110" height="25" fill="#b8e186" stroke="none" stroke-width="0" opacity="1"/>
		<rect x="952" y="437" width="110" height="93" fill="#e6f5d0" stroke="none" stroke-width="0" opacity="1"/>
		<rect x="952" y="412" width="110" height="118" fill="none" stroke="#7fbc41" stroke-width="2" opacity="1"/>
		<line x1="952" y1="437" x2="1062" y2="437" stroke="#7fbc41" stroke-width="1"/>
	</g>
	<text x="957" y="429.75" fill="#000000" font-family="Verdana" font-size="12">CONSTRUCTION</text>
	<text x="957" y="454.8" fill="#000000" font-family="Verdana" font-size="12">nom</text>
	<line x1="957" y1="457" x2="985" y2="457" stroke="#000000" stroke-width="1"/>
	<text x="957" y="471.8" fill="#000000" font-family="Verdana" font-size="12">thème</text>
	<text x="957" y="488.8" fill="#000000" font-family="Verdana" font-size="12">description</text>
	<text x="957" y="505.8" fill="#000000" font-family="Verdana" font-size="12">année_sortie</text>
	<text x="957" y="522.8" fill="#000000" font-family="Verdana" font-size="12">dimension</text>
</g>

<!-- Entity AMATEUR -->
<g>
	<g>
		<rect x="1293" y="437" width="70" height="25" fill="#b8e186" stroke="none" stroke-width="0" opacity="1"/>
		<rect x="1293" y="462" width="70" height="43" fill="#e6f5d0" stroke="none" stroke-width="0" opacity="1"/>
		<rect x="1293" y="437" width="70" height="68" fill="none" stroke="#7fbc41" stroke-width="2" opacity="1"/>
		<line x1="1293" y1="462" x2="1363" y2="462" stroke="#7fbc41" stroke-width="1"/>
	</g>
	<text x="1298" y="454.75" fill="#000000" font-family="Verdana" font-size="12">AMATEUR</text>
	<text x="1298" y="479.8" fill="#000000" font-family="Verdana" font-size="12">nom_C</text>
	<text x="1298" y="496.8" fill="#000000" font-family="Verdana" font-size="12">licence</text>
</g>

<!-- Entity OFFICIEL -->
<g>
	<g>
		<rect x="1123" y="555" width="120" height="25" fill="#b8e186" stroke="none" stroke-width="0" opacity="1"/>
		<rect x="1123" y="580" width="120" height="25" fill="#e6f5d0" stroke="none" stroke-width="0" opacity="1"/>
		<rect x="1123" y="555" width="120" height="50" fill="none" stroke="#7fbc41" stroke-width="2" opacity="1"/>
		<line x1="1123" y1="580" x2="1243" y2="580" stroke="#7fbc41" stroke-width="1"/>
	</g>
	<text x="1155" y="572.75" fill="#000000" font-family="Verdana" font-size="12">OFFICIEL</text>
	<text x="1128" y="597.8" fill="#000000" font-family="Verdana" font-size="12">age_recommendé</text>
</g>

<!-- Entity FABRIQUANT -->
<g>
	<g>
		<rect x="1413" y="555" width="92" height="25" fill="#b8e186" stroke="none" stroke-width="0" opacity="1"/>
		<rect x="1413" y="580" width="92" height="25" fill="#e6f5d0" stroke="none" stroke-width="0" opacity="1"/>
		<rect x="1413" y="555" width="92" height="50" fill="none" stroke="#7fbc41" stroke-width="2" opacity="1"/>
		<line x1="1413" y1="580" x2="1505" y2="580" stroke="#7fbc41" stroke-width="1"/>
	</g>
	<text x="1419" y="572.75" fill="#000000" font-family="Verdana" font-size="12">FABRIQUANT</text>
	<text x="1418" y="597.8" fill="#000000" font-family="Verdana" font-size="12">fabriquant_C</text>
	<line x1="1418" y1="600" x2="1497" y2="600" stroke="#000000" stroke-width="1"/>
</g>

<!-- Entity ETAPE -->
<g>
	<g>
		<rect x="980" y="630" width="54" height="25" fill="#b8e186" stroke="none" stroke-width="0" opacity="1"/>
		<rect x="980" y="655" width="54" height="43" fill="#e6f5d0" stroke="none" stroke-width="0" opacity="1"/>
		<rect x="980" y="630" width="54" height="68" fill="none" stroke="#7fbc41" stroke-width="2" opacity="1"/>
		<line x1="980" y1="655" x2="1034" y2="655" stroke="#7fbc41" stroke-width="1"/>
	</g>
	<text x="988" y="647.75" fill="#000000" font-family="Verdana" font-size="12">ÉTAPE</text>
	<text x="985" y="672.8" fill="#000000" font-family="Verdana" font-size="12">num_E</text>
	<line x1="985" y1="675" x2="1028" y2="675" stroke="#000000" stroke-width="1" stroke-dasharray="4"/>
	<text x="985" y="689.8" fill="#000000" font-family="Verdana" font-size="12">image</text>
</g>

<!-- Entity INSTRUCTION -->
<g>
	<g>
		<rect x="785" y="731" width="98" height="25" fill="#b8e186" stroke="none" stroke-width="0" opacity="1"/>
		<rect x="785" y="756" width="98" height="25" fill="#e6f5d0" stroke="none" stroke-width="0" opacity="1"/>
		<rect x="785" y="731" width="98" height="50" fill="none" stroke="#7fbc41" stroke-width="2" opacity="1"/>
		<line x1="785" y1="756" x2="883" y2="756" stroke="#7fbc41" stroke-width="1"/>
	</g>
	<text x="791" y="748.75" fill="#000000" font-family="Verdana" font-size="12">INSTRUCTION</text>
	<text x="790" y="773.8" fill="#000000" font-family="Verdana" font-size="12">instruction</text>
	<line x1="790" y1="776" x2="855" y2="776" stroke="#000000" stroke-width="1" stroke-dasharray="4"/>
</g>

<!-- Entity BOITE -->
<g>
	<g>
		<rect x="1131" y="714" width="104" height="25" fill="#b8e186" stroke="none" stroke-width="0" opacity="1"/>
		<rect x="1131" y="739" width="104" height="59" fill="#e6f5d0" stroke="none" stroke-width="0" opacity="1"/>
		<rect x="1131" y="714" width="104" height="84" fill="none" stroke="#7fbc41" stroke-width="2" opacity="1"/>
		<line x1="1131" y1="739" x2="1235" y2="739" stroke="#7fbc41" stroke-width="1"/>
	</g>
	<text x="1164" y="731.75" fill="#000000" font-family="Verdana" font-size="12">BOÎTE</text>
	<text x="1136" y="756.8" fill="#000000" font-family="Verdana" font-size="12">code_référence</text>
	<line x1="1136" y1="759" x2="1230" y2="759" stroke="#000000" stroke-width="1"/>
	<text x="1136" y="773.8" fill="#000000" font-family="Verdana" font-size="12">nom</text>
	<text x="1136" y="790.8" fill="#000000" font-family="Verdana" font-size="12">prix</text>
</g>
</svg>